<svg xmlns="http://www.w3.org/2000/svg" xmlns:xlink="http://www.w3.org/1999/xlink" fill="none" version="1.1" width="14" height="14" viewBox="0 0 14 14"><defs><clipPath id="master_svg0_437_4963"><rect x="0" y="0" width="14" height="14" rx="0"/></clipPath></defs><g style="mix-blend-mode:passthrough" clip-path="url(#master_svg0_437_4963)"><g style="mix-blend-mode:passthrough"><path d="M1.75,12.25C1.75,12.25,1.75,1.75,1.75,1.75C1.75,1.75,12.25,1.75,12.25,1.75C12.25,1.75,12.25,12.25,12.25,12.25C12.25,12.25,1.75,12.25,1.75,12.25C1.75,12.25,1.75,12.25,1.75,12.25ZM5.74219,7.77919C5.74219,7.77919,7.49219,9.17394,7.49219,9.17394C7.49219,9.17394,9.95312,6.412,9.95312,6.412C9.95312,6.412,9.29688,5.83756,9.29688,5.83756C9.29688,5.83756,7.38281,7.97038,7.38281,7.97038C7.38281,7.97038,5.63281,6.57562,5.63281,6.57562C5.63281,6.57562,3.17188,9.33756,3.17188,9.33756C3.17188,9.33756,3.82812,9.912,3.82812,9.912C3.82812,9.912,5.74219,7.77919,5.74219,7.77919C5.74219,7.77919,5.74219,7.77919,5.74219,7.77919ZM11.15625,4.8125C11.14721,4.63021,11.08115,4.47752,10.95806,4.35444C10.83498,4.23135,10.68229,4.16981,10.5,4.16981C10.31771,4.16981,10.16502,4.23135,10.04194,4.35444C9.91885,4.47752,9.85731,4.63021,9.85731,4.8125C9.85731,4.99479,9.91885,5.14748,10.04194,5.27056C10.16502,5.39365,10.31771,5.45519,10.5,5.45519C10.68229,5.45519,10.83498,5.39365,10.95806,5.27056C11.08115,5.14748,11.14721,4.99479,11.15625,4.8125C11.15625,4.8125,11.15625,4.8125,11.15625,4.8125Z" fill="#131414" fill-opacity="1"/></g></g></svg>