<svg xmlns="http://www.w3.org/2000/svg" xmlns:xlink="http://www.w3.org/1999/xlink" fill="none" version="1.1" width="17.136821746826172" height="19.211999893188477" viewBox="0 0 17.136821746826172 19.211999893188477"><g style="mix-blend-mode:passthrough"><path d="M17.1319,10.5691C17.1319,10.5691,17.1319,16.331,17.1319,16.331C17.1319,17.0951,16.8611,17.8279,16.3792,18.3682C15.8973,18.9085,15.2436,19.212,14.5621,19.212C14.5621,19.212,2.56978,19.212,2.56978,19.212C1.88823,19.212,1.2346,18.9085,0.752671,18.3682C0.270744,17.8279,7.60807e-16,17.0951,0,16.331C0,16.331,0,2.88653,0,2.88653C7.60807e-16,2.12245,0.270744,1.38967,0.752671,0.849383C1.2346,0.309098,1.88823,0.00556827,2.56978,0.00556827C2.56978,0.00556827,7.70934,0.00556827,7.70934,0.00556827C7.93652,0.00556827,8.1544,0.106745,8.31504,0.28684C8.47568,0.466935,8.56593,0.711197,8.56593,0.96589C8.56593,1.22058,8.47568,1.46484,8.31504,1.64494C8.1544,1.82503,7.93652,1.92621,7.70934,1.92621C7.70934,1.92621,2.56978,1.92621,2.56978,1.92621C2.3426,1.92621,2.12472,2.02739,1.96408,2.20748C1.80343,2.38758,1.71319,2.63184,1.71319,2.88653C1.71319,2.88653,1.71319,16.331,1.71319,16.331C1.71319,16.5857,1.80343,16.83,1.96408,17.0101C2.12472,17.1902,2.3426,17.2914,2.56978,17.2914C2.56978,17.2914,14.5621,17.2914,14.5621,17.2914C14.7893,17.2914,15.0071,17.1902,15.1678,17.0101C15.3284,16.83,15.4187,16.5857,15.4187,16.331C15.4187,16.331,15.4187,10.5691,15.4187,10.5691C15.4187,10.3144,15.5089,10.0702,15.6696,9.89006C15.8302,9.70996,16.0481,9.60878,16.2753,9.60878C16.5024,9.60878,16.7203,9.70996,16.881,9.89006C17.0416,10.0702,17.1319,10.3144,17.1319,10.5691ZM3.48995,9.96995C3.53258,9.85295,3.59539,9.74653,3.67478,9.6568C3.67478,9.6568,9.61954,3.00177,9.61954,3.00177C9.61954,3.00177,12.0351,0.284061,12.0351,0.284061C12.1148,0.194052,12.2095,0.12261,12.3139,0.0738554C12.4183,0.0251011,12.5302,-2.13234e-16,12.6433,0C12.7564,-4.26468e-16,12.8684,0.0251011,12.9727,0.0738554C13.0771,0.12261,13.1719,0.194052,13.2515,0.284061C13.2515,0.284061,16.8834,4.40384,16.8834,4.40384C16.9637,4.49311,17.0275,4.59933,17.0709,4.71635C17.1144,4.83338,17.1368,4.9589,17.1368,5.08567C17.1368,5.21244,17.1144,5.33796,17.0709,5.45499C17.0275,5.57201,16.9637,5.67822,16.8834,5.7675C16.8834,5.7675,14.4507,8.43719,14.4507,8.43719C14.4507,8.43719,8.5231,15.0922,8.5231,15.0922C8.44306,15.1812,8.34813,15.2516,8.24377,15.2994C8.1394,15.3472,8.02765,15.3714,7.91492,15.3707C7.91492,15.3707,4.28296,15.3707,4.28296,15.3707C4.05578,15.3707,3.8379,15.2695,3.67726,15.0894C3.51662,14.9093,3.42637,14.6651,3.42637,14.4104C3.42637,14.4104,3.42637,10.3386,3.42637,10.3386C3.42637,10.3386,3.42637,10.3386,3.42637,10.3386C3.42572,10.2122,3.44733,10.087,3.48995,9.96995ZM13.8511,6.40131C13.8511,6.40131,15.0675,5.03765,15.0675,5.03765C15.0675,5.03765,12.6433,2.31994,12.6433,2.31994C12.6433,2.31994,11.4269,3.6836,11.4269,3.6836C11.4269,3.6836,13.8511,6.40131,13.8511,6.40131ZM7.56371,13.4501C7.56371,13.4501,12.6433,7.75536,12.6433,7.75536C12.6433,7.75536,10.2192,5.03765,10.2192,5.03765C10.2192,5.03765,5.13956,10.7324,5.13956,10.7324C5.13956,10.7324,5.13956,13.4501,5.13956,13.4501C5.13956,13.4501,7.56371,13.4501,7.56371,13.4501Z" fill="#8146FF" fill-opacity="1"/></g></svg>