<svg xmlns="http://www.w3.org/2000/svg" xmlns:xlink="http://www.w3.org/1999/xlink" fill="none" version="1.1" width="15.413508415222168" height="19.200000762939453" viewBox="0 0 15.413508415222168 19.200000762939453"><g style="mix-blend-mode:passthrough"><path d="M5.13784,14.4C5.13784,14.4,5.13784,8.64,5.13784,8.64C5.13784,8.38539,5.22805,8.14121,5.38864,7.96118C5.54923,7.78114,5.76704,7.68,5.99414,7.68C6.22125,7.68,6.43905,7.78114,6.59964,7.96118C6.76023,8.14121,6.85045,8.38539,6.85045,8.64C6.85045,8.64,6.85045,14.4,6.85045,14.4C6.85045,14.6546,6.76023,14.8988,6.59964,15.0788C6.43905,15.2589,6.22125,15.36,5.99414,15.36C5.76704,15.36,5.54923,15.2589,5.38864,15.0788C5.22805,14.8988,5.13784,14.6546,5.13784,14.4ZM15.4135,4.8C15.4135,5.05461,15.3233,5.29879,15.1627,5.47882C15.0021,5.65886,14.7843,5.76,14.5572,5.76C14.5572,5.76,13.7009,5.76,13.7009,5.76C13.7009,5.76,13.7009,16.32,13.7009,16.32C13.7009,17.0838,13.4302,17.8164,12.9485,18.3565C12.4667,18.8966,11.8133,19.2,11.132,19.2C11.132,19.2,4.28153,19.2,4.28153,19.2C3.60021,19.2,2.9468,18.8966,2.46503,18.3565C1.98327,17.8164,1.71261,17.0838,1.71261,16.32C1.71261,16.32,1.71261,5.76,1.71261,5.76C1.71261,5.76,0.856306,5.76,0.856306,5.76C0.6292,5.76,0.411395,5.65886,0.250806,5.47882C0.0902177,5.29879,3.80276e-16,5.05461,0,4.8C7.60553e-16,4.54539,0.0902177,4.30121,0.250806,4.12118C0.411395,3.94114,0.6292,3.84,0.856306,3.84C0.856306,3.84,4.28153,3.84,4.28153,3.84C4.28153,3.84,4.28153,2.88,4.28153,2.88C4.28153,2.11618,4.55218,1.38364,5.03395,0.843533C5.51571,0.303428,6.16913,8.52651e-16,6.85045,0C6.85045,0,8.56306,0,8.56306,0C9.24438,4.26326e-16,9.89779,0.303428,10.3796,0.843533C10.8613,1.38364,11.132,2.11618,11.132,2.88C11.132,2.88,11.132,3.84,11.132,3.84C11.132,3.84,14.5572,3.84,14.5572,3.84C14.7843,3.84,15.0021,3.94114,15.1627,4.12118C15.3233,4.30121,15.4135,4.54539,15.4135,4.8ZM9.41937,3.84C9.41937,3.84,9.41937,2.88,9.41937,2.88C9.41937,2.62539,9.32915,2.38121,9.16856,2.20118C9.00797,2.02114,8.79017,1.92,8.56306,1.92C8.56306,1.92,6.85045,1.92,6.85045,1.92C6.62334,1.92,6.40554,2.02114,6.24495,2.20118C6.08436,2.38121,5.99414,2.62539,5.99414,2.88C5.99414,2.88,5.99414,3.84,5.99414,3.84C5.99414,3.84,9.41937,3.84,9.41937,3.84ZM3.42522,5.76C3.42522,5.76,3.42522,16.32,3.42522,16.32C3.42522,16.5746,3.51544,16.8188,3.67603,16.9988C3.83662,17.1789,4.05442,17.28,4.28153,17.28C4.28153,17.28,11.132,17.28,11.132,17.28C11.3591,17.28,11.5769,17.1789,11.7375,16.9988C11.8981,16.8188,11.9883,16.5746,11.9883,16.32C11.9883,16.32,11.9883,5.76,11.9883,5.76C11.9883,5.76,3.42522,5.76,3.42522,5.76ZM8.56306,14.4C8.56306,14.4,8.56306,8.64,8.56306,8.64C8.56306,8.38539,8.65328,8.14121,8.81387,7.96118C8.97445,7.78114,9.19226,7.68,9.41937,7.68C9.64647,7.68,9.86428,7.78114,10.0249,7.96118C10.1855,8.14121,10.2757,8.38539,10.2757,8.64C10.2757,8.64,10.2757,14.4,10.2757,14.4C10.2757,14.6546,10.1855,14.8988,10.0249,15.0788C9.86428,15.2589,9.64647,15.36,9.41937,15.36C9.19226,15.36,8.97445,15.2589,8.81387,15.0788C8.65328,14.8988,8.56306,14.6546,8.56306,14.4Z" fill="#F26E6E" fill-opacity="1"/></g></svg>