<svg xmlns="http://www.w3.org/2000/svg" xmlns:xlink="http://www.w3.org/1999/xlink" fill="none" version="1.1" width="32" height="32" viewBox="0 0 32 32"><defs><clipPath id="master_svg0_437_4573"><rect x="0" y="0" width="32" height="32" rx="6"/></clipPath><clipPath id="master_svg1_437_4574"><rect x="7" y="7" width="18" height="18" rx="0"/></clipPath></defs><g style="mix-blend-mode:passthrough" clip-path="url(#master_svg0_437_4573)"><rect x="0" y="0" width="32" height="32" rx="6" fill="#F7F8FA" fill-opacity="1"/><g style="mix-blend-mode:passthrough" clip-path="url(#master_svg1_437_4574)"><g style="mix-blend-mode:passthrough"><path d="M10.75,9.25C10.75,9.25,10.75,8.6,10.75,8.6C10.391015,8.6,10.1,8.891015,10.1,9.25C10.1,9.25,10.75,9.25,10.75,9.25C10.75,9.25,10.75,9.25,10.75,9.25ZM21.25,9.25C21.25,9.25,21.9,9.25,21.9,9.25C21.9,8.891015,21.609,8.6,21.25,8.6C21.25,8.6,21.25,9.25,21.25,9.25C21.25,9.25,21.25,9.25,21.25,9.25ZM21.25,22.75C21.25,22.75,21.25,23.4,21.25,23.4C21.609,23.4,21.9,23.109,21.9,22.75C21.9,22.75,21.25,22.75,21.25,22.75C21.25,22.75,21.25,22.75,21.25,22.75ZM10.75,22.75C10.75,22.75,10.1,22.75,10.1,22.75C10.1,23.109,10.391015,23.4,10.75,23.4C10.75,23.4,10.75,22.75,10.75,22.75C10.75,22.75,10.75,22.75,10.75,22.75ZM10.75,9.9C10.75,9.9,21.25,9.9,21.25,9.9C21.25,9.9,21.25,8.6,21.25,8.6C21.25,8.6,10.75,8.6,10.75,8.6C10.75,8.6,10.75,9.9,10.75,9.9C10.75,9.9,10.75,9.9,10.75,9.9ZM20.6,9.25C20.6,9.25,20.6,22.75,20.6,22.75C20.6,22.75,21.9,22.75,21.9,22.75C21.9,22.75,21.9,9.25,21.9,9.25C21.9,9.25,20.6,9.25,20.6,9.25C20.6,9.25,20.6,9.25,20.6,9.25ZM21.25,22.1C21.25,22.1,10.75,22.1,10.75,22.1C10.75,22.1,10.75,23.4,10.75,23.4C10.75,23.4,21.25,23.4,21.25,23.4C21.25,23.4,21.25,22.1,21.25,22.1C21.25,22.1,21.25,22.1,21.25,22.1ZM11.4,22.75C11.4,22.75,11.4,9.25,11.4,9.25C11.4,9.25,10.1,9.25,10.1,9.25C10.1,9.25,10.1,22.75,10.1,22.75C10.1,22.75,11.4,22.75,11.4,22.75C11.4,22.75,11.4,22.75,11.4,22.75Z" fill="#000000" fill-opacity="1"/></g><g style="mix-blend-mode:passthrough"><path d="M10.75,17.6C10.391015,17.6,10.1,17.891015,10.1,18.25C10.1,18.608985,10.391015,18.9,10.75,18.9C10.75,18.9,10.75,17.6,10.75,17.6C10.75,17.6,10.75,17.6,10.75,17.6ZM21.25,18.9C21.609,18.9,21.9,18.608985,21.9,18.25C21.9,17.891015,21.609,17.6,21.25,17.6C21.25,17.6,21.25,18.9,21.25,18.9C21.25,18.9,21.25,18.9,21.25,18.9ZM10.75,18.9C10.75,18.9,21.25,18.9,21.25,18.9C21.25,18.9,21.25,17.6,21.25,17.6C21.25,17.6,10.75,17.6,10.75,17.6C10.75,17.6,10.75,18.9,10.75,18.9C10.75,18.9,10.75,18.9,10.75,18.9Z" fill="#000000" fill-opacity="1"/></g><g style="mix-blend-mode:passthrough"><path d="M16,20.875C16.207107,20.875,16.375,20.707107,16.375,20.5C16.375,20.292893,16.207107,20.125,16,20.125C15.792893,20.125,15.625,20.292893,15.625,20.5C15.625,20.707107,15.792893,20.875,16,20.875C16,20.875,16,20.875,16,20.875Z" fill="#000000" fill-opacity="1"/><path d="M15.725,20.5Q15.725,20.775,16,20.775Q16.275,20.775,16.275,20.5Q16.275,20.225,16,20.225Q15.886091,20.225,15.805546,20.305546Q15.725,20.386091,15.725,20.5ZM17.025,20.5Q17.025,20.924568999999998,16.72478,21.22478Q16.424568999999998,21.525,16,21.525Q15.575431,21.525,15.275215,21.22478Q14.975,20.924568999999998,14.975,20.5Q14.975,20.075431,15.275215,19.775215Q15.5754309,19.475,16,19.475Q16.424568999999998,19.475,16.72478,19.775215Q17.025,20.0754308,17.025,20.5Z" fill="#000000" fill-opacity="1"/></g><g style="mix-blend-mode:passthrough"><path d="M15.534369375,13.40143803125C15.534369375,13.40143803125,15.993989375,12.94181803125,15.993989375,12.94181803125C15.993989375,12.94181803125,15.534369375,12.48219903125,15.534369375,12.48219903125C15.534369375,12.48219903125,15.074749375,12.94181803125,15.074749375,12.94181803125C15.074749375,12.94181803125,15.534369375,13.40143803125,15.534369375,13.40143803125C15.534369375,13.40143803125,15.534369375,13.40143803125,15.534369375,13.40143803125ZM16.860199375,14.72726703125C16.860199375,14.72726703125,16.400579375,15.18688703125,16.400579375,15.18688703125C16.400579375,15.18688703125,16.860199375,15.64650703125,16.860199375,15.64650703125C16.860199375,15.64650703125,17.319819375,15.18688703125,17.319819375,15.18688703125C17.319819375,15.18688703125,16.860199375,14.72726703125,16.860199375,14.72726703125C16.860199375,14.72726703125,16.860199375,14.72726703125,16.860199375,14.72726703125ZM13.652978375,16.20206703125C13.652978375,16.20206703125,15.993989375,13.86105703125,15.993989375,13.86105703125C15.993989375,13.86105703125,15.074749375,12.94181803125,15.074749375,12.94181803125C15.074749375,12.94181803125,12.733740375,15.282827031250001,12.733740375,15.282827031250001C12.733740375,15.282827031250001,13.652978375,16.20206703125,13.652978375,16.20206703125C13.652978375,16.20206703125,13.652978375,16.20206703125,13.652978375,16.20206703125ZM15.074749375,13.86105703125C15.074749375,13.86105703125,16.400579375,15.18688703125,16.400579375,15.18688703125C16.400579375,15.18688703125,17.319819375,14.26764703125,17.319819375,14.26764703125C17.319819375,14.26764703125,15.993989375,12.94181803125,15.993989375,12.94181803125C15.993989375,12.94181803125,15.074749375,13.86105703125,15.074749375,13.86105703125C15.074749375,13.86105703125,15.074749375,13.86105703125,15.074749375,13.86105703125ZM17.319819375,15.18688703125C17.319819375,15.18688703125,19.441129375,13.06557603125,19.441129375,13.06557603125C19.441129375,13.06557603125,18.521889375,12.14633803125,18.521889375,12.14633803125C18.521889375,12.14633803125,16.400579375,14.26764703125,16.400579375,14.26764703125C16.400579375,14.26764703125,17.319819375,15.18688703125,17.319819375,15.18688703125C17.319819375,15.18688703125,17.319819375,15.18688703125,17.319819375,15.18688703125Z" fill="#000000" fill-opacity="1"/></g></g></g></svg>