<svg xmlns="http://www.w3.org/2000/svg" xmlns:xlink="http://www.w3.org/1999/xlink" fill="none" version="1.1" width="32" height="32" viewBox="0 0 32 32"><defs><clipPath id="master_svg0_437_4559"><rect x="0" y="0" width="32" height="32" rx="6"/></clipPath><clipPath id="master_svg1_437_4560"><rect x="7" y="7" width="18" height="18" rx="0"/></clipPath></defs><g style="mix-blend-mode:passthrough" clip-path="url(#master_svg0_437_4559)"><rect x="0" y="0" width="32" height="32" rx="6" fill="#F7F8FA" fill-opacity="1"/><g style="mix-blend-mode:passthrough" clip-path="url(#master_svg1_437_4560)"><g style="mix-blend-mode:passthrough"><path d="M13,12.35C13,12.35,12.35,12.35,12.35,12.35C12.35,12.35,12.35,13.65,12.35,13.65C12.35,13.65,13,13.65,13,13.65C13,13.65,13,12.35,13,12.35C13,12.35,13,12.35,13,12.35ZM19,13.65C19,13.65,19.65,13.65,19.65,13.65C19.65,13.65,19.65,12.35,19.65,12.35C19.65,12.35,19,12.35,19,12.35C19,12.35,19,13.65,19,13.65C19,13.65,19,13.65,19,13.65ZM13,13.65C13,13.65,19,13.65,19,13.65C19,13.65,19,12.35,19,12.35C19,12.35,13,12.35,13,12.35C13,12.35,13,13.65,13,13.65C13,13.65,13,13.65,13,13.65Z" fill="#386FFF" fill-opacity="1"/></g><g style="mix-blend-mode:passthrough"><path d="M13,15.35C13,15.35,12.35,15.35,12.35,15.35C12.35,15.35,12.35,16.65,12.35,16.65C12.35,16.65,13,16.65,13,16.65C13,16.65,13,15.35,13,15.35C13,15.35,13,15.35,13,15.35ZM16,16.65C16,16.65,16.65,16.65,16.65,16.65C16.65,16.65,16.65,15.35,16.65,15.35C16.65,15.35,16,15.35,16,15.35C16,15.35,16,16.65,16,16.65C16,16.65,16,16.65,16,16.65ZM13,16.65C13,16.65,16,16.65,16,16.65C16,16.65,16,15.35,16,15.35C16,15.35,13,15.35,13,15.35C13,15.35,13,16.65,13,16.65C13,16.65,13,16.65,13,16.65Z" fill="#386FFF" fill-opacity="1"/></g><g style="mix-blend-mode:passthrough"><path d="M10,22.375C10,22.375,9.35,22.375,9.35,22.375C9.35,22.734,9.641015,23.025,10,23.025C10,23.025,10,22.375,10,22.375C10,22.375,10,22.375,10,22.375ZM10,9.25C10,9.25,10,8.6,10,8.6C9.641015,8.6,9.35,8.891015,9.35,9.25C9.35,9.25,10,9.25,10,9.25C10,9.25,10,9.25,10,9.25ZM22,9.25C22,9.25,22.65,9.25,22.65,9.25C22.65,8.891015,22.359,8.6,22,8.6C22,8.6,22,9.25,22,9.25C22,9.25,22,9.25,22,9.25ZM16,21.725C16,21.725,10,21.725,10,21.725C10,21.725,10,23.025,10,23.025C10,23.025,16,23.025,16,23.025C16,23.025,16,21.725,16,21.725C16,21.725,16,21.725,16,21.725ZM10.65,22.375C10.65,22.375,10.65,9.25,10.65,9.25C10.65,9.25,9.35,9.25,9.35,9.25C9.35,9.25,9.35,22.375,9.35,22.375C9.35,22.375,10.65,22.375,10.65,22.375C10.65,22.375,10.65,22.375,10.65,22.375ZM10,9.9C10,9.9,22,9.9,22,9.9C22,9.9,22,8.6,22,8.6C22,8.6,10,8.6,10,8.6C10,8.6,10,9.9,10,9.9C10,9.9,10,9.9,10,9.9ZM21.35,9.25C21.35,9.25,21.35,15.625,21.35,15.625C21.35,15.625,22.65,15.625,22.65,15.625C22.65,15.625,22.65,9.25,22.65,9.25C22.65,9.25,21.35,9.25,21.35,9.25C21.35,9.25,21.35,9.25,21.35,9.25Z" fill="#386FFF" fill-opacity="1"/></g><g style="mix-blend-mode:passthrough"><path d="M18.25,17.875C18.25,17.875,18.25,17.225,18.25,17.225C17.891015,17.225,17.6,17.516015,17.6,17.875C17.6,17.875,18.25,17.875,18.25,17.875C18.25,17.875,18.25,17.875,18.25,17.875ZM22.375,17.875C22.375,17.875,23.025,17.875,23.025,17.875C23.025,17.516015,22.73398,17.225,22.375,17.225C22.375,17.225,22.375,17.875,22.375,17.875C22.375,17.875,22.375,17.875,22.375,17.875ZM22.375,22.75C22.375,22.75,22.02603,23.29838,22.02603,23.29838C22.22618,23.42575,22.47982,23.43395,22.68779,23.31979C22.89575,23.20563,23.025,22.98724,23.025,22.75C23.025,22.75,22.375,22.75,22.375,22.75C22.375,22.75,22.375,22.75,22.375,22.75ZM20.3125,21.4375C20.3125,21.4375,20.66147,20.88912,20.66147,20.88912C20.44855,20.75363,20.17645,20.75363,19.96353,20.88912C19.96353,20.88912,20.3125,21.4375,20.3125,21.4375C20.3125,21.4375,20.3125,21.4375,20.3125,21.4375ZM18.25,22.75C18.25,22.75,17.6,22.75,17.6,22.75C17.6,22.98724,17.72925,23.20563,17.937214,23.31979C18.145178,23.43395,18.398821,23.42575,18.598969,23.29838C18.598969,23.29838,18.25,22.75,18.25,22.75C18.25,22.75,18.25,22.75,18.25,22.75ZM18.25,18.525C18.25,18.525,22.375,18.525,22.375,18.525C22.375,18.525,22.375,17.225,22.375,17.225C22.375,17.225,18.25,17.225,18.25,17.225C18.25,17.225,18.25,18.525,18.25,18.525C18.25,18.525,18.25,18.525,18.25,18.525ZM21.725,17.875C21.725,17.875,21.725,22.75,21.725,22.75C21.725,22.75,23.025,22.75,23.025,22.75C23.025,22.75,23.025,17.875,23.025,17.875C23.025,17.875,21.725,17.875,21.725,17.875C21.725,17.875,21.725,17.875,21.725,17.875ZM22.72397,22.20162C22.72397,22.20162,20.66147,20.88912,20.66147,20.88912C20.66147,20.88912,19.96353,21.98588,19.96353,21.98588C19.96353,21.98588,22.02603,23.29838,22.02603,23.29838C22.02603,23.29838,22.72397,22.20162,22.72397,22.20162C22.72397,22.20162,22.72397,22.20162,22.72397,22.20162ZM19.96353,20.88912C19.96353,20.88912,17.901031,22.20162,17.901031,22.20162C17.901031,22.20162,18.598969,23.29838,18.598969,23.29838C18.598969,23.29838,20.66147,21.98588,20.66147,21.98588C20.66147,21.98588,19.96353,20.88912,19.96353,20.88912C19.96353,20.88912,19.96353,20.88912,19.96353,20.88912ZM18.9,22.75C18.9,22.75,18.9,17.875,18.9,17.875C18.9,17.875,17.6,17.875,17.6,17.875C17.6,17.875,17.6,22.75,17.6,22.75C17.6,22.75,18.9,22.75,18.9,22.75C18.9,22.75,18.9,22.75,18.9,22.75Z" fill="#386FFF" fill-opacity="1"/></g></g></g></svg>