<svg xmlns="http://www.w3.org/2000/svg" xmlns:xlink="http://www.w3.org/1999/xlink" fill="none" version="1.1" width="32" height="32" viewBox="0 0 32 32"><defs><clipPath id="master_svg0_437_4547"><rect x="0" y="0" width="32" height="32" rx="6"/></clipPath><clipPath id="master_svg1_437_4548"><rect x="7" y="7" width="18" height="18" rx="0"/></clipPath></defs><g style="mix-blend-mode:passthrough" clip-path="url(#master_svg0_437_4547)"><rect x="0" y="0" width="32" height="32" rx="6" fill="#F7F8FA" fill-opacity="1"/><g style="mix-blend-mode:passthrough" clip-path="url(#master_svg1_437_4548)"><g style="mix-blend-mode:passthrough"><path d="M16.0052121875,9.63134765625C16.0052121875,9.63134765625,16.270822187500002,9.03809265625,16.270822187500002,9.03809265625C16.1018321875,8.96243265625,15.9085921875,8.96243265625,15.739602187500001,9.03809365625C15.739602187500001,9.03809365625,16.0052121875,9.63134765625,16.0052121875,9.63134765625C16.0052121875,9.63134765625,16.0052121875,9.63134765625,16.0052121875,9.63134765625ZM22.3747421875,12.48307765625C22.3747421875,12.48307765625,22.6403421875,13.07633765625,22.6403421875,13.07633765625C22.8741421875,12.97162765625,23.0247421875,12.73930765625,23.0247421875,12.48307765625C23.0247421875,12.22684765625,22.8741421875,11.99452765625,22.6403421875,11.88982765625C22.6403421875,11.88982765625,22.3747421875,12.48307765625,22.3747421875,12.48307765625C22.3747421875,12.48307765625,22.3747421875,12.48307765625,22.3747421875,12.48307765625ZM16.0052121875,15.33484765625C16.0052121875,15.33484765625,15.739602187500001,15.92809765625,15.739602187500001,15.92809765625C15.9085921875,16.003757656250002,16.1018321875,16.003757656250002,16.270822187500002,15.92809765625C16.270822187500002,15.92809765625,16.0052121875,15.33484765625,16.0052121875,15.33484765625C16.0052121875,15.33484765625,16.0052121875,15.33484765625,16.0052121875,15.33484765625ZM9.6357421875,12.48307765625C9.6357421875,12.48307765625,9.3701311875,11.88982765625,9.3701311875,11.88982765625C9.1362711875,11.99452765625,8.9857431875,12.22684765625,8.9857421875,12.48307765625C8.9857421875,12.73930765625,9.1362691875,12.97162765625,9.3701281875,13.07633765625C9.3701281875,13.07633765625,9.6357421875,12.48307765625,9.6357421875,12.48307765625C9.6357421875,12.48307765625,9.6357421875,12.48307765625,9.6357421875,12.48307765625ZM15.739602187500001,10.22460265625C15.739602187500001,10.22460265625,22.109042187500002,13.07633765625,22.109042187500002,13.07633765625C22.109042187500002,13.07633765625,22.6403421875,11.88982765625,22.6403421875,11.88982765625C22.6403421875,11.88982765625,16.270822187500002,9.03809265625,16.270822187500002,9.03809265625C16.270822187500002,9.03809265625,15.739602187500001,10.22460265625,15.739602187500001,10.22460265625C15.739602187500001,10.22460265625,15.739602187500001,10.22460265625,15.739602187500001,10.22460265625ZM22.109042187500002,11.88982765625C22.109042187500002,11.88982765625,15.739602187500001,14.741587656250001,15.739602187500001,14.741587656250001C15.739602187500001,14.741587656250001,16.270822187500002,15.92809765625,16.270822187500002,15.92809765625C16.270822187500002,15.92809765625,22.6403421875,13.07633765625,22.6403421875,13.07633765625C22.6403421875,13.07633765625,22.109042187500002,11.88982765625,22.109042187500002,11.88982765625C22.109042187500002,11.88982765625,22.109042187500002,11.88982765625,22.109042187500002,11.88982765625ZM16.270822187500002,14.741587656250001C16.270822187500002,14.741587656250001,9.9013561875,11.88982765625,9.9013561875,11.88982765625C9.9013561875,11.88982765625,9.3701281875,13.07633765625,9.3701281875,13.07633765625C9.3701281875,13.07633765625,15.739602187500001,15.92809765625,15.739602187500001,15.92809765625C15.739602187500001,15.92809765625,16.270822187500002,14.741587656250001,16.270822187500002,14.741587656250001C16.270822187500002,14.741587656250001,16.270822187500002,14.741587656250001,16.270822187500002,14.741587656250001ZM9.9013531875,13.07633765625C9.9013531875,13.07633765625,16.270822187500002,10.22460165625,16.270822187500002,10.22460165625C16.270822187500002,10.22460165625,15.739602187500001,9.03809365625,15.739602187500001,9.03809365625C15.739602187500001,9.03809365625,9.3701311875,11.88982765625,9.3701311875,11.88982765625C9.3701311875,11.88982765625,9.9013531875,13.07633765625,9.9013531875,13.07633765625C9.9013531875,13.07633765625,9.9013531875,13.07633765625,9.9013531875,13.07633765625Z" fill="#000000" fill-opacity="1"/></g><g style="mix-blend-mode:passthrough"><path d="M22.6403421875,16.313958125C22.9679421875,16.167265125,23.1146421875,15.782738525,22.9679421875,15.455093125C22.821242187499998,15.127447125,22.436742187500002,14.980756125,22.109042187500002,15.127448125C22.109042187500002,15.127448125,22.6403421875,16.313958125,22.6403421875,16.313958125C22.6403421875,16.313958125,22.6403421875,16.313958125,22.6403421875,16.313958125ZM16.0052121875,18.572433125C16.0052121875,18.572433125,15.739602187500001,19.165683125,15.739602187500001,19.165683125C15.9085921875,19.241343125,16.1018321875,19.241343125,16.270822187500002,19.165683125C16.270822187500002,19.165683125,16.0052121875,18.572433125,16.0052121875,18.572433125C16.0052121875,18.572433125,16.0052121875,18.572433125,16.0052121875,18.572433125ZM9.9013531875,15.127448125C9.5737075875,14.980756125,9.1891801875,15.127447125,9.0424871875,15.455092125C8.8957951875,15.782737725,9.0424861875,16.167265125,9.3701311875,16.313958125C9.3701311875,16.313958125,9.9013531875,15.127448125,9.9013531875,15.127448125C9.9013531875,15.127448125,9.9013531875,15.127448125,9.9013531875,15.127448125ZM22.109042187500002,15.127448125C22.109042187500002,15.127448125,15.739602187500001,17.979173125,15.739602187500001,17.979173125C15.739602187500001,17.979173125,16.270822187500002,19.165683125,16.270822187500002,19.165683125C16.270822187500002,19.165683125,22.6403421875,16.313958125,22.6403421875,16.313958125C22.6403421875,16.313958125,22.109042187500002,15.127448125,22.109042187500002,15.127448125C22.109042187500002,15.127448125,22.109042187500002,15.127448125,22.109042187500002,15.127448125ZM16.270822187500002,17.979173125C16.270822187500002,17.979173125,9.9013531875,15.127448125,9.9013531875,15.127448125C9.9013531875,15.127448125,9.3701311875,16.313958125,9.3701311875,16.313958125C9.3701311875,16.313958125,15.739602187500001,19.165683125,15.739602187500001,19.165683125C15.739602187500001,19.165683125,16.270822187500002,17.979173125,16.270822187500002,17.979173125C16.270822187500002,17.979173125,16.270822187500002,17.979173125,16.270822187500002,17.979173125Z" fill="#000000" fill-opacity="1"/></g><g style="mix-blend-mode:passthrough"><path d="M22.6295,20.122550875C22.9572,19.975857875,23.1039,19.591330875,22.9572,19.263685875C22.810499999999998,18.936039875,22.426000000000002,18.789349875,22.098300000000002,18.936042875C22.098300000000002,18.936042875,22.6295,20.122550875,22.6295,20.122550875C22.6295,20.122550875,22.6295,20.122550875,22.6295,20.122550875ZM15.994489999999999,22.381016875C15.994489999999999,22.381016875,15.72888,22.974276875,15.72888,22.974276875C15.897870000000001,23.049936875,16.09111,23.049936875,16.2601,22.974276875C16.2601,22.974276875,15.994489999999999,22.381016875,15.994489999999999,22.381016875C15.994489999999999,22.381016875,15.994489999999999,22.381016875,15.994489999999999,22.381016875ZM9.89061,18.936041875C9.5629644,18.789349875,9.178438,18.936040875,9.031745,19.263686875C8.885053,19.591332475,9.031744,19.975858875,9.35939,20.122551875C9.35939,20.122551875,9.89061,18.936041875,9.89061,18.936041875C9.89061,18.936041875,9.89061,18.936041875,9.89061,18.936041875ZM22.098300000000002,18.936042875C22.098300000000002,18.936042875,15.72888,21.787766875,15.72888,21.787766875C15.72888,21.787766875,16.2601,22.974276875,16.2601,22.974276875C16.2601,22.974276875,22.6295,20.122550875,22.6295,20.122550875C22.6295,20.122550875,22.098300000000002,18.936042875,22.098300000000002,18.936042875C22.098300000000002,18.936042875,22.098300000000002,18.936042875,22.098300000000002,18.936042875ZM16.2601,21.787766875C16.2601,21.787766875,9.89061,18.936041875,9.89061,18.936041875C9.89061,18.936041875,9.35939,20.122551875,9.35939,20.122551875C9.35939,20.122551875,15.72888,22.974276875,15.72888,22.974276875C15.72888,22.974276875,16.2601,21.787766875,16.2601,21.787766875C16.2601,21.787766875,16.2601,21.787766875,16.2601,21.787766875Z" fill="#000000" fill-opacity="1"/></g></g></g></svg>