<svg xmlns="http://www.w3.org/2000/svg" xmlns:xlink="http://www.w3.org/1999/xlink" fill="none" version="1.1" width="100" height="50" viewBox="0 0 100 50"><g style="mix-blend-mode:passthrough"><g><rect x="0" y="0" width="100" height="50" rx="25" fill="#FFFFFF" fill-opacity="1"/><rect x="0.5" y="0.5" width="99" height="49" rx="24.5" fill-opacity="0" stroke-opacity="1" stroke="#0095FF" fill="none" stroke-width="1"/></g><g><path d="M32.53125,18.41992L25.23633,18.41992L25.23633,31L32.53125,31L32.53125,28.949199999999998L27.76172,28.949199999999998L27.76172,25.621090000000002L31.99219,25.621090000000002L31.99219,23.62305L27.76172,23.62305L27.76172,20.4707L32.53125,20.4707L32.53125,18.41992ZM43.2188,18.41992L43.2188,27.0625L37.5117,18.41992L34.9863,18.41992L34.9863,31L37.5117,31L37.5117,22.38086L43.2188,31L45.738299999999995,31L45.738299999999995,18.41992L43.2188,18.41992Z" fill="#01111C" fill-opacity="1"/></g><g style="mix-blend-mode:passthrough" transform="matrix(0,1,-1,0,104,-64)"><g><path d="M85.17608,20.000281536C84.706076,19.9895393,84.281119,20.287086,84.117386,20.741584C83.9536532,21.19617,84.0871027,21.7078,84.449846,22.01618C84.449846,22.01618,91.2014,27.98176,91.2014,27.98176C91.2014,27.98176,84.449846,33.945,84.449846,33.945C84.116253,34.197900000000004,83.9480424,34.6222,84.0142104,35.0439C84.0803787,35.4653,84.369788,35.8132,84.763721,35.9447C85.15765,36.0762,85.58981,35.9692,85.8829,35.6676C85.8829,35.6676,93.61282,28.84632,93.61282,28.84632C93.85853,28.630200000000002,94,28.3137,94,27.98069C94,27.64759,93.85849999999999,27.33128,93.61282,27.11497C93.61282,27.11497,85.88291,20.287086,85.88291,20.287086C85.68768,20.108039,85.4372,20.00632402,85.17608,20.0000373952C85.17608,20.0000373952,85.17608,20.000281536,85.17608,20.000281536Z" fill="#0095FF" fill-opacity="1"/><path d="M85.67607,19.99784015L85.67833,20.511891L85.16465,20.500151Q84.73932,20.49043,84.587793,20.911048Q84.431682,21.34448,84.7737,21.63524L91.95661,27.981830000000002L84.76681,34.3322L84.751886,34.3435Q84.446723,34.574799999999996,84.508165,34.966300000000004Q84.568794,35.3525,84.921975,35.4704Q85.26584,35.5851,85.52429,35.3191L85.53767,35.3054L93.28199000000001,28.471420000000002Q93.50001,28.27965,93.5,27.980710000000002Q93.5,27.681820000000002,93.28241,27.49024L85.5519,20.661827Q85.38089,20.505113,85.16404,20.499893L85.17608,20.0000373952L85.67607,19.99784015ZM84.676081,20.00223464L84.673821,19.487801L85.18811,19.500182Q85.78019,19.514436,86.21392,19.9123443L93.94323,26.73969Q94.5,27.2299,94.5,27.98067Q94.5,28.731830000000002,93.94365,29.221220000000002L86.21373,36.042500000000004L85.8829,35.6676L86.24151,36.016Q85.5452,36.732600000000005,84.605467,36.4189Q83.675247,36.108599999999996,83.520256,35.1214Q83.366107,34.1391,84.147806,33.5466L84.449846,33.945L84.118847,33.5703L90.8704,27.60701L91.2014,27.98176L90.87033,28.356450000000002L84.125992,22.39713Q83.256034,21.65755,83.64698,20.572121Q84.0424894,19.474242,85.1875,19.500412L85.17608,20.000281536L84.676082,20.00247878L84.676081,20.00223464Z" fill="#0095FF" fill-opacity="1"/></g></g></g></svg>