<?xml version="1.0" standalone="no"?><!DOCTYPE svg PUBLIC "-//W3C//DTD SVG 1.1//EN" "http://www.w3.org/Graphics/SVG/1.1/DTD/svg11.dtd"><svg t="1667180508152" class="icon" viewBox="0 0 1024 1024" version="1.1" xmlns="http://www.w3.org/2000/svg" p-id="2069" xmlns:xlink="http://www.w3.org/1999/xlink" width="200" height="200"><path d="M848 689.024a16 16 0 0 1 16 16v64a16 16 0 0 1-16 16H176a16 16 0 0 1-16-16v-64a16 16 0 0 1 16-16h672z m0-224a16 16 0 0 1 16 16v64a16 16 0 0 1-16 16H176a16 16 0 0 1-16-16v-64a16 16 0 0 1 16-16h672z m0-224a16 16 0 0 1 16 16v64a16 16 0 0 1-16 16H176a16 16 0 0 1-16-16v-64a16 16 0 0 1 16-16h672z" p-id="2070"></path></svg>