<?xml version="1.0" standalone="no"?><!DOCTYPE svg PUBLIC "-//W3C//DTD SVG 1.1//EN" "http://www.w3.org/Graphics/SVG/1.1/DTD/svg11.dtd"><svg t="1666681992776" class="icon" viewBox="0 0 1024 1024" version="1.1" xmlns="http://www.w3.org/2000/svg" p-id="7974" xmlns:xlink="http://www.w3.org/1999/xlink" width="200" height="200"><path d="M657.152 568.608A287.424 287.424 0 0 0 800 320v-3.52a287.616 287.616 0 0 0-205.44-272.32c-1.28-0.32-2.24-0.64-3.2-0.96a287.52 287.52 0 0 0-64.64-10.88C521.92 32 517.12 32 512 32a288 288 0 0 0-285.12 247.68A278.144 278.144 0 0 0 224 320a269.92 269.92 0 0 0 1.92 32.32 287.52 287.52 0 0 0 140.96 216.256A448.448 448.448 0 0 0 64 992h64a384 384 0 0 1 768 0h64a448.448 448.448 0 0 0-302.848-423.392zM512 96h0.64a220.512 220.512 0 0 1 63.68 9.28 177.984 177.984 0 0 1 31.36 12.48 214.944 214.944 0 0 1 59.84 41.28 222.464 222.464 0 0 1 67.52 141.76 272.8 272.8 0 0 1-99.52-59.2 193.664 193.664 0 0 1-42.56-57.6 194.272 194.272 0 0 1-39.04 59.2A255.072 255.072 0 0 1 368 320a269.088 269.088 0 0 1-79.36-11.84A224 224 0 0 1 512 96z m-216.64 280a319.744 319.744 0 0 0 72.64 8 320 320 0 0 0 228.16-92.48 344.576 344.576 0 0 0 135.04 75.52 224 224 0 0 1-435.84 8.96z" p-id="7975"></path></svg>