<svg xmlns="http://www.w3.org/2000/svg" xmlns:xlink="http://www.w3.org/1999/xlink" fill="none" version="1.1" width="24" height="24" viewBox="0 0 24 24"><defs><clipPath id="master_svg0_273_00678"><rect x="0" y="0" width="24" height="24" rx="0"/></clipPath></defs><g style="mix-blend-mode:passthrough" clip-path="url(#master_svg0_273_00678)"><g style="mix-blend-mode:passthrough"><path d="M2.0390625,21.297702767944337C2.0390625,21.297702767944337,2.0390625,13.865602767944337,2.0390625,13.865602767944337C2.0390625,13.692202767944336,2.1703125,13.546902767944337,2.3437505,13.530502767944336C2.3437505,13.530502767944336,16.539862499999998,12.119542767944337,16.539862499999998,12.119542767944337C16.6851625,12.105482767944336,16.6851625,11.894542767944335,16.539862499999998,11.880482767944336C16.539862499999998,11.880482767944336,2.3437505,10.469542767944336,2.3437505,10.469542767944336C2.1703125,10.453142767944335,2.0390625,10.307832767944337,2.0390625,10.134392767944336C2.0390625,10.134392767944336,2.0390625,2.702359767944336,2.0390625,2.702359767944336C2.0390625,2.453922567944336,2.2992185,2.289860067944336,2.5218745,2.400016367944336C2.5218745,2.400016367944336,21.7687625,11.697672767944336,21.7687625,11.697672767944336C22.0218625,11.819542767944336,22.0218625,12.182832767944335,21.7687625,12.304702767944336C21.7687625,12.304702767944336,2.5242185,21.602402767944337,2.5242185,21.602402767944337C2.2992185,21.710202767944335,2.0390625,21.546102767944337,2.0390625,21.297702767944337Z" fill="#FFFFFF" fill-opacity="1"/></g><g style="mix-blend-mode:passthrough"><path d="M2.27339451171875,21.297671881103515C2.27339451171875,20.800771881103515,2.27339451171875,20.301571881103516,2.27339451171875,19.804671881103516C2.27339451171875,18.780471881103516,2.27339451171875,17.756271881103515,2.27339451171875,16.732071881103515C2.27339451171875,15.899971881103516,2.27339451171875,15.067971881103515,2.27339451171875,14.235971881103515C2.27339451171875,14.139871881103515,2.27339451171875,14.043771881103515,2.27339451171875,13.947671881103515C2.27339451171875,13.900771881103516,2.26401951171875,13.839871881103516,2.29214451171875,13.802371881103516C2.30620751171875,13.783571881103516,2.32261351171875,13.778871881103516,2.34136351171875,13.764871881103515C2.34605051171875,13.760171881103515,2.42105051171875,13.750771881103516,2.34370651171875,13.762471881103515C2.34605051171875,13.762471881103515,2.34839451171875,13.762471881103515,2.35073851171875,13.762471881103515C2.36245751171875,13.760171881103515,2.37183151171875,13.760171881103515,2.38355051171875,13.760171881103515C2.43511351171875,13.755471881103515,2.48433151171875,13.750771881103516,2.53589451171875,13.746071881103516C3.05151951171875,13.694571881103515,3.56713951171875,13.642971881103515,4.08276951171875,13.591371881103516C4.96167951171875,13.504671881103516,5.84057951171875,13.415571881103515,6.71948951171875,13.328871881103515C7.76245951171875,13.225771881103515,8.80776951171875,13.122671881103516,9.85073951171875,13.017171881103515C10.87026951171875,12.916371881103515,11.88979951171875,12.815571881103516,12.90929951171875,12.712471881103516C13.71319951171875,12.632771881103515,14.51479951171875,12.553071881103516,15.31869951171875,12.473471881103515C15.71249951171875,12.433571881103516,16.10859951171875,12.396071881103516,16.50229951171875,12.356271881103515C16.60309951171875,12.346871881103516,16.70149951171875,12.328071881103515,16.77889951171875,12.253071881103516C16.92889951171875,12.105461881103516,16.914799511718748,11.847651881103516,16.748399511718752,11.718741881103515C16.68279951171875,11.669521881103515,16.61479951171875,11.653121881103516,16.535099511718748,11.643741881103516C16.43429951171875,11.632021881103515,16.333599511718752,11.624991881103515,16.23509951171875,11.613271881103516C15.66319951171875,11.557021881103516,15.09139951171875,11.498431881103516,14.51949951171875,11.442181881103515C13.60779951171875,11.350771881103515,12.69609951171875,11.261711881103516,11.78667951171875,11.170301881103516C10.73432951171875,11.064841881103515,9.684329511718751,10.961711881103515,8.63198951171875,10.856241881103516C7.62885951171875,10.757801881103516,6.62807951171875,10.657021881103516,5.62495951171875,10.558591881103515C4.860889511718749,10.483591881103516,4.0968295117187505,10.406241881103515,3.33510951171875,10.331241881103516C3.00932951171875,10.298431881103516,2.67886351171875,10.279681881103516,2.35542551171875,10.232801881103516C2.35308151171875,10.232801881103516,2.35308251171875,10.232801881103516,2.35073851171875,10.232801881103516C2.38589451171875,10.237491881103516,2.38355051171875,10.249211881103516,2.34839451171875,10.230461881103516C2.3202695117187497,10.214051881103515,2.29683151171875,10.197651881103516,2.28511351171875,10.164841881103516C2.27808151171875,10.146091881103516,2.28276951171875,10.132021881103515,2.28042551171875,10.113271881103515C2.27808251171875,10.049991881103516,2.28042551171875,9.984371881103517,2.28042551171875,9.921091881103516C2.28042551171875,9.616401881103515,2.28042551171875,9.311711881103516,2.28042551171875,9.007021881103515C2.28042551171875,8.017961881103517,2.28042551171875,7.031241881103516,2.28042551171875,6.042181881103516C2.28042551171875,5.137491881103516,2.28042551171875,4.2304618811035155,2.28042551171875,3.3257718811035155C2.28042551171875,3.1265558811035157,2.27808251171875,2.9249938811035157,2.28042551171875,2.725774881103516C2.28276951171875,2.6062428811035154,2.34370651171875,2.5710868811035157,2.4515195117187503,2.6179618811035157C2.72339451171875,2.7374928811035155,2.99057951171875,2.8781178811035155,3.2577695117187497,3.007024881103516C3.81557951171875,3.276551881103516,4.37104951171875,3.5460918811035156,4.92885951171875,3.8156218811035156C5.69995951171875,4.188271881103516,6.47104951171875,4.5609318811035156,7.24213951171875,4.933591881103515C8.14448951171875,5.369521881103516,9.04682951171875,5.805461881103516,9.94917951171875,6.241401881103515C10.90776951171875,6.705461881103516,11.86639951171875,7.167181881103516,12.82499951171875,7.631241881103516C13.76479951171875,8.085931881103516,14.70699951171875,8.540621881103515,15.64679951171875,8.995301881103515C16.48589951171875,9.400771881103516,17.32259951171875,9.806241881103515,18.16169951171875,10.209371881103516C18.82499951171875,10.530461881103516,19.48589951171875,10.849211881103516,20.14919951171875,11.170301881103516C20.55699951171875,11.367181881103516,20.96709951171875,11.566401881103516,21.37499951171875,11.763271881103515C21.45929951171875,11.805461881103515,21.54609951171875,11.845301881103516,21.63039951171875,11.887491881103516C21.63749951171875,11.892181881103516,21.64449951171875,11.894521881103516,21.65149951171875,11.896871881103516C21.65389951171875,11.896871881103516,21.65389951171875,11.899211881103515,21.65619951171875,11.899211881103515C21.68899951171875,11.915621881103515,21.71009951171875,11.936711881103516,21.71249951171875,11.939051881103516C21.75459951171875,12.002341881103515,21.74289951171875,12.056241881103515,21.64679951171875,12.105461881103516C21.42419951171875,12.220271881103516,21.19679951171875,12.323471881103515,20.97179951171875,12.431271881103516C20.44919951171875,12.684371881103516,19.92419951171875,12.937471881103516,19.40149951171875,13.190571881103516C18.65619951171875,13.551571881103516,17.91089951171875,13.910171881103516,17.16559951171875,14.271071881103516C16.272599511718752,14.702371881103515,15.38199951171875,15.133571881103515,14.48899951171875,15.564871881103516C13.53279951171875,16.026571881103514,12.57889951171875,16.488271881103515,11.62260951171875,16.949971881103515C10.67807951171875,17.407071881103516,9.73354951171875,17.861671881103515,8.789019511718749,18.318771881103515C7.92885951171875,18.733571881103515,7.07104951171875,19.148471881103514,6.21088951171875,19.563271881103514C5.5218295117187495,19.896071881103516,4.83042951171875,20.228871881103515,4.1413595117187505,20.564071881103516C3.69370951171875,20.779671881103514,3.24838951171875,20.995271881103516,2.80073951171875,21.210971881103514C2.6952695117187497,21.262471881103515,2.58980051171875,21.311671881103514,2.48433151171875,21.363271881103515C2.46323851171875,21.372671881103514,2.44214451171875,21.386671881103517,2.41870651171875,21.396071881103516C2.34605051171875,21.419571881103515,2.27808151171875,21.379671881103516,2.27339451171875,21.297671881103515C2.25933151171875,20.997671881103514,1.79058199171875,20.995271881103516,1.80464449171875,21.297671881103515C1.82339451171875,21.731271881103517,2.24995651171875,21.982071881103515,2.64136351171875,21.803871881103515C2.65542551171875,21.796871881103517,2.66948851171875,21.789871881103515,2.68355051171875,21.785171881103516C2.7796445117187503,21.738271881103515,2.87807951171875,21.691371881103514,2.97417951171875,21.644571881103516C3.40776951171875,21.435971881103516,3.84135951171875,21.224971881103517,4.27260951171875,21.016371881103517C4.95698951171875,20.685971881103516,5.63901951171875,20.355471881103515,6.32338951171875,20.024971881103514C7.17885951171875,19.612471881103517,8.034329511718749,19.197671881103517,8.88979951171875,18.785171881103516C9.84135951171875,18.325771881103517,10.79526951171875,17.864071881103516,11.74682951171875,17.404671881103518C12.71249951171875,16.938271881103518,13.68039951171875,16.469571881103516,14.64609951171875,16.003071881103516C15.54369951171875,15.569571881103515,16.44139951171875,15.135971881103515,17.33899951171875,14.702371881103515C18.09369951171875,14.339071881103516,18.84609951171875,13.973471881103515,19.60069951171875,13.610171881103515C20.13279951171875,13.352371881103515,20.66479951171875,13.096871881103516,21.19679951171875,12.839071881103516C21.42419951171875,12.728871881103515,21.65389951171875,12.625771881103516,21.87649951171875,12.510971881103515C22.28669951171875,12.299971881103515,22.28899951171875,11.704681881103516,21.87889951171875,11.491401881103515C21.81319951171875,11.456241881103516,21.74529951171875,11.425771881103516,21.67729951171875,11.392961881103515C21.29289951171875,11.207801881103515,20.90859951171875,11.022651881103515,20.52419951171875,10.835151881103515C19.87729951171875,10.521091881103516,19.22809951171875,10.209371881103516,18.58119951171875,9.895301881103515C17.74449951171875,9.492181881103516,16.90779951171875,9.086711881103515,16.07109951171875,8.683591881103515C15.13119951171875,8.228901881103516,14.19139951171875,7.776551881103516,13.25149951171875,7.321871881103515C12.28119951171875,6.853121881103515,11.31088951171875,6.384371881103515,10.34292951171875,5.915621881103515C9.42651951171875,5.472651881103515,8.507769511718749,5.0296818811035156,7.59135951171875,4.586711881103516C6.80854951171875,4.2093718811035155,6.02807951171875,3.8320218811035156,5.2452695117187496,3.4523418811035156C4.673389511718749,3.1757718811035156,4.10385951171875,2.8992118811035157,3.5319895117187503,2.6249928811035157C3.2507395117187503,2.4890558811035155,2.96713951171875,2.3531178811035156,2.6858945117187503,2.2171806811035157C2.66948851171875,2.2101494811035156,2.65542551171875,2.2007744811035157,2.6390195117187503,2.1937431811035157C2.29683151171875,2.0367118811035154,1.87495701171875,2.2171808811035154,1.81401951171875,2.6109308811035157C1.78823831171875,2.7703058811035155,1.80464449171875,2.9413998811035156,1.80464449171875,3.1031178811035156C1.80464449171875,3.9515518811035157,1.80464449171875,4.802341881103516,1.80464449171875,5.650771881103516C1.80464449171875,6.672651881103516,1.80464449171875,7.696871881103515,1.80464449171875,8.718741881103515C1.80464449171875,9.070301881103514,1.80464449171875,9.421871881103517,1.80464449171875,9.773431881103516C1.80464449171875,9.956241881103516,1.77886331171875,10.176551881103515,1.84917581171875,10.347651881103516C1.93823851171875,10.567961881103516,2.13276951171875,10.680461881103515,2.36011351171875,10.706241881103516C2.39995651171875,10.710931881103516,2.44214451171875,10.713271881103516,2.48198851171875,10.717961881103516C2.66714451171875,10.736711881103515,2.85229951171875,10.755461881103516,3.03745951171875,10.774211881103515C3.73823951171875,10.844521881103516,4.441359511718749,10.912491881103515,5.142139511718749,10.982801881103516C6.12417951171875,11.081241881103516,7.10385951171875,11.177341881103516,8.08588951171875,11.275771881103516C9.154639511718749,11.381241881103515,10.22104951171875,11.489051881103515,11.28979951171875,11.594521881103516C12.24369951171875,11.688271881103516,13.19759951171875,11.784371881103516,14.14919951171875,11.878121881103516C14.78899951171875,11.941401881103516,15.42649951171875,12.004681881103515,16.06639951171875,12.067961881103516C16.20929951171875,12.082021881103516,16.34999951171875,12.096091881103515,16.49289951171875,12.110151881103516C16.50699951171875,12.112491881103516,16.51869951171875,12.112491881103516,16.53279951171875,12.114841881103516C16.535099511718748,12.114841881103516,16.53749951171875,12.117181881103516,16.539799511718748,12.114841881103516C16.464799511718752,12.133591881103516,16.38509951171875,12.016401881103516,16.42959951171875,11.948431881103515C16.46949951171875,11.885151881103516,16.60309951171875,11.880461881103516,16.48589951171875,11.892181881103516C16.06639951171875,11.934371881103516,15.64679951171875,11.976551881103516,15.22729951171875,12.016401881103516C14.39999951171875,12.098431881103515,13.57029951171875,12.180471881103516,12.74289951171875,12.262471881103515C11.70932951171875,12.365571881103516,10.67573951171875,12.468771881103516,9.64213951171875,12.569571881103515C8.592139511718749,12.672671881103515,7.54448951171875,12.778071881103516,6.49448951171875,12.881271881103515C5.63198951171875,12.967971881103516,4.76714951171875,13.052371881103516,3.90464951171875,13.139071881103515C3.42651951171875,13.185971881103516,2.9483995117187503,13.235171881103515,2.47026951171875,13.282071881103516C2.43276951171875,13.286671881103516,2.39526951171875,13.289071881103515,2.36011351171875,13.293771881103515C2.10698851171875,13.321871881103515,1.87964461171875,13.476571881103515,1.82339461171875,13.739071881103516C1.78823831171875,13.903071881103516,1.80933192171875,14.088271881103516,1.80933192171875,14.254671881103516C1.80933192171875,15.103071881103515,1.80933192171875,15.953871881103515,1.80933192171875,16.802371881103518C1.80933192171875,17.828871881103517,1.80933192171875,18.855471881103515,1.80933192171875,19.882071881103517C1.80933192171875,20.353071881103517,1.80933192171875,20.826571881103515,1.80933192171875,21.297671881103515C1.80464442171875,21.599971881103517,2.27339451171875,21.599971881103517,2.27339451171875,21.297671881103515Z" fill="#FFFFFF" fill-opacity="1"/></g></g></svg>