<svg xmlns="http://www.w3.org/2000/svg" xmlns:xlink="http://www.w3.org/1999/xlink" fill="none" version="1.1" width="44" height="46" viewBox="0 0 44 46"><defs><linearGradient x1="0" y1="0" x2="0" y2="1" id="master_svg0_163_0492"><stop offset="0%" stop-color="#75D1FB" stop-opacity="1"/><stop offset="100%" stop-color="#4DAEF8" stop-opacity="1"/></linearGradient></defs><g style="mix-blend-mode:passthrough"><g style="mix-blend-mode:passthrough"><ellipse cx="22" cy="23" rx="22" ry="23" fill="url(#master_svg0_163_0492)" fill-opacity="1"/></g><g style="mix-blend-mode:passthrough"><g style="mix-blend-mode:passthrough"><path d="M17.00439453125,12.54593563079834C17.00439453125,12.54593563079834,27.00439453125,12.54593563079834,27.00439453125,12.54593563079834C27.00439453125,12.54593563079834,27.00439453125,14.63684563079834,27.00439453125,14.63684563079834C27.00439453125,14.63684563079834,17.00439453125,14.63684563079834,17.00439453125,14.63684563079834C17.00439453125,14.63684563079834,17.00439453125,12.54593563079834,17.00439453125,12.54593563079834C17.00439453125,12.54593563079834,17.00439453125,12.54593563079834,17.00439453125,12.54593563079834Z" fill="#FFFFFF" fill-opacity="1"/></g><g style="mix-blend-mode:passthrough"><path d="M28.00390625,15.68229563079834C28.00390625,15.68229563079834,28.00390625,12.54593563079834,28.00390625,12.54593563079834C28.00390625,12.54593563079834,30.00390625,12.54593563079834,30.00390625,12.54593563079834C30.55620625,12.54593563079834,31.00390625,13.01400163079834,31.00390625,13.59138563079834C31.00390625,13.59138563079834,31.00390625,32.409535630798345,31.00390625,32.409535630798345C31.00390625,32.98693563079834,30.55620625,33.455035630798335,30.00390625,33.455035630798335C30.00390625,33.455035630798335,14.00390625,33.455035630798335,14.00390625,33.455035630798335C13.45162125,33.455035630798335,13.00390625,32.98693563079834,13.00390625,32.409535630798345C13.00390625,32.409535630798345,13.00390625,13.59138563079834,13.00390625,13.59138563079834C13.00390625,13.01400163079834,13.45162125,12.54593563079834,14.00390625,12.54593563079834C14.00390625,12.54593563079834,16.00390625,12.54593563079834,16.00390625,12.54593563079834C16.00390625,12.54593563079834,16.00390625,15.68229563079834,16.00390625,15.68229563079834C16.00390625,15.68229563079834,28.00390625,15.68229563079834,28.00390625,15.68229563079834C28.00390625,15.68229563079834,28.00390625,15.68229563079834,28.00390625,15.68229563079834ZM16.00390625,29.27323563079834C16.00390625,29.27323563079834,28.00390625,29.27323563079834,28.00390625,29.27323563079834C28.00390625,29.27323563079834,28.00390625,27.18233563079834,28.00390625,27.18233563079834C28.00390625,27.18233563079834,16.00390625,27.18233563079834,16.00390625,27.18233563079834C16.00390625,27.18233563079834,16.00390625,29.27323563079834,16.00390625,29.27323563079834C16.00390625,29.27323563079834,16.00390625,29.27323563079834,16.00390625,29.27323563079834ZM28.00390625,25.09143563079834C28.00390625,25.09143563079834,16.00390625,25.09143563079834,16.00390625,25.09143563079834C16.00390625,25.09143563079834,16.00390625,23.00043563079834,16.00390625,23.00043563079834C16.00390625,23.00043563079834,28.00390625,23.00043563079834,28.00390625,23.00043563079834C28.00390625,23.00043563079834,28.00390625,25.09143563079834,28.00390625,25.09143563079834C28.00390625,25.09143563079834,28.00390625,25.09143563079834,28.00390625,25.09143563079834ZM16.00390625,20.90957563079834C16.00390625,20.90957563079834,28.00390625,20.90957563079834,28.00390625,20.90957563079834C28.00390625,20.90957563079834,28.00390625,18.81866563079834,28.00390625,18.81866563079834C28.00390625,18.81866563079834,16.00390625,18.81866563079834,16.00390625,18.81866563079834C16.00390625,18.81866563079834,16.00390625,20.90957563079834,16.00390625,20.90957563079834C16.00390625,20.90957563079834,16.00390625,20.90957563079834,16.00390625,20.90957563079834Z" fill-rule="evenodd" fill="#FFFFFF" fill-opacity="1"/></g></g></g></svg>