<svg xmlns="http://www.w3.org/2000/svg" xmlns:xlink="http://www.w3.org/1999/xlink" fill="none" version="1.1" width="44" height="46" viewBox="0 0 44 46"><defs><linearGradient x1="0" y1="0" x2="0" y2="1" id="master_svg0_163_0503"><stop offset="0%" stop-color="#FB93CC" stop-opacity="1"/><stop offset="100%" stop-color="#FA599C" stop-opacity="1"/></linearGradient></defs><g style="mix-blend-mode:passthrough"><g style="mix-blend-mode:passthrough"><ellipse cx="22" cy="23" rx="22" ry="23" fill="url(#master_svg0_163_0503)" fill-opacity="1"/></g><g style="mix-blend-mode:passthrough"><g style="mix-blend-mode:passthrough"><path d="M16.43315,21.91166498565674C16.43315,21.91166498565674,16.43315,12.545614985656739,16.43315,12.545614985656739C16.43315,11.968229985656738,16.88086,11.500164985656738,17.43315,11.500164985656738C17.43315,11.500164985656738,25.4378,11.500164985656738,25.4378,11.500164985656738C25.990099999999998,11.500164985656738,26.4378,11.968230985656739,26.4378,12.545614985656739C26.4378,12.545614985656739,26.4378,21.91166498565674,26.4378,21.91166498565674C26.4378,21.91166498565674,30.3706,21.91166498565674,30.3706,21.91166498565674C30.7941,21.91166498565674,31.0258,22.42766498565674,30.7554,22.76826498565674C30.7554,22.76826498565674,22.2092,33.53156498565674,22.2092,33.53156498565674C21.80945,34.03506498565674,21.07054,34.035164985656735,20.670569999999998,33.53196498565674C20.670569999999998,33.53196498565674,12.116378,22.76846498565674,12.116378,22.76846498565674C11.845684,22.42786498565674,12.0773762,21.91166498565674,12.500952999999999,21.91166498565674C12.500952999999999,21.91166498565674,16.43315,21.91166498565674,16.43315,21.91166498565674C16.43315,21.91166498565674,16.43315,21.91166498565674,16.43315,21.91166498565674Z" fill="#FFFFFF" fill-opacity="1"/></g></g></g></svg>