<svg xmlns="http://www.w3.org/2000/svg" xmlns:xlink="http://www.w3.org/1999/xlink" fill="none" version="1.1" width="15.999994277954102" height="10" viewBox="0 0 15.999994277954102 10"><g transform="matrix(0,1,-1,0,15.999994277954102,-15.999994277954102)"><path d="M17.1760742779541,0.000281536C16.7060702779541,-0.0104607,16.281113277954102,0.287086,16.1173802779541,0.741584C15.953647477954101,1.19617,16.0870969779541,1.7078,16.449840277954102,2.01618C16.449840277954102,2.01618,23.2013942779541,7.98176,23.2013942779541,7.98176C23.2013942779541,7.98176,16.449840277954102,13.945,16.449840277954102,13.945C16.116247277954102,14.1979,15.948036677954102,14.6222,16.0142046779541,15.0439C16.080372977954102,15.4653,16.3697822779541,15.8132,16.763715277954102,15.9447C17.157644277954102,16.0762,17.5898042779541,15.9692,17.8828942779541,15.6676C17.8828942779541,15.6676,25.6128142779541,8.84632,25.6128142779541,8.84632C25.858524277954103,8.6302,25.9999942779541,8.3137,25.9999942779541,7.98069C25.9999942779541,7.64759,25.8584942779541,7.33128,25.6128142779541,7.11497C25.6128142779541,7.11497,17.8829042779541,0.287086,17.8829042779541,0.287086C17.687674277954102,0.108039,17.437194277954102,0.00632402,17.1760742779541,0.0000373952C17.1760742779541,0.0000373952,17.1760742779541,0.000281536,17.1760742779541,0.000281536Z" fill="#0095FF" fill-opacity="1"/></g></svg>