<svg xmlns="http://www.w3.org/2000/svg" xmlns:xlink="http://www.w3.org/1999/xlink" fill="none" version="1.1" width="36" height="42.9523811340332" viewBox="0 0 36 42.9523811340332"><g style="mix-blend-mode:passthrough"><path d="M7,3.90476C6.20436,3.90476,5.44128,4.21332,4.87868,4.76252C4.31608,5.31173,4,6.05664,4,6.83333C4,6.83333,4,29.945,4,29.945C4.92886,29.5149,5.95232,29.2857,7,29.2857C7,29.2857,32,29.2857,32,29.2857C32,29.2857,32,3.90476,32,3.90476C32,3.90476,7,3.90476,7,3.90476C7,3.90476,7,3.90476,7,3.90476ZM36,1.95238C36,0.87411,35.1046,0,34,0C34,0,7,0,7,0C5.14348,0,3.363,0.719939,2.05026,2.00144C0.737498,3.28293,0,5.02102,0,6.83333C0,6.83333,0,36.119,0,36.119C0,37.9314,0.737498,39.6695,2.05026,40.951C3.363,42.2325,5.14348,42.9524,7,42.9524C7,42.9524,34,42.9524,34,42.9524C35.1046,42.9524,36,42.0783,36,41C36,41,36,1.95238,36,1.95238C36,1.95238,36,1.95238,36,1.95238ZM32,33.1905C32,33.1905,7,33.1905,7,33.1905C6.20436,33.1905,5.44128,33.499,4.87868,34.0482C4.31608,34.5974,4,35.3424,4,36.119C4,36.8957,4.31608,37.6407,4.87868,38.1899C5.44128,38.7391,6.20436,39.0476,7,39.0476C7,39.0476,32,39.0476,32,39.0476C32,39.0476,32,33.1905,32,33.1905C32,33.1905,32,33.1905,32,33.1905Z" fill-rule="evenodd" fill="#0256FF" fill-opacity="1"/></g></svg>